<svg height="37" viewBox="0 0 38 37" width="38" xmlns="http://www.w3.org/2000/svg" xmlns:xlink="http://www.w3.org/1999/xlink"><linearGradient id="a" x1="50%" x2="50%" y1="0%" y2="100%"><stop offset="0" stop-color="#f452ff"/><stop offset="1" stop-color="#832bc1"/></linearGradient><g fill="none" fill-rule="nonzero"><path d="m37.2482514 32.0694114c-.3693806.9135676-1.2217047 2.1998849-2.4304223 3.1059532-.6978363.5233199-1.5309817 1.0235544-2.6753672 1.3536621-1.2198925.3520169-2.7224835.4709733-4.5926431.4709733h-17.0997886c-1.87000858 0-3.37259967-.1189564-4.59264322-.4709733-1.14438546-.3301077-1.97737966-.8303422-2.67536721-1.3536621-1.20856647-.9062155-2.06104152-2.1923856-2.4304222-3.1059532-.74404686-1.8406629-.75159757-3.9290903-.75159757-5.2443747v-16.6500735c0-1.31528431.00755071-3.40371176.75159757-5.24437464.36938068-.91356754 1.22170471-2.19988475 2.4304222-3.10595318.69783653-.52331996 1.53098175-1.02355443 2.67536721-1.35366212 1.21989253-.35201686 2.72248362-.47097326 4.59264322-.47097326h17.0999395c1.8700087 0 3.3725997.1189564 4.5926434.47097326 1.1443853.33010769 1.9773797.8304892 2.6753672 1.35366212 1.2085664.90621547 2.0610415 2.19238564 2.4304221 3.10595318.7440469 1.84066288.7515976 3.92909033.7515976 5.24437464v16.6500735c0 1.3151374-.0077017 3.4035648-.7517486 5.2443747z" fill="url(#a)"/><path d="m22.2249832 21.7745497c-.5559645-.5626967-1.5324359-.9234214-2.6851493-.9234214-1.1528606 0-2.129332.3607247-2.6852965.9234214-.2900556.2936362-.4434759.5946168-.4917694 1.0234188-.0936423.8303448-.0410789 1.5452973.0603669 2.6883456.0965871 1.0892362.2800436 2.5417394.5194499 4.0210781.1703524 1.0527965.3087546 1.6210015.4347889 2.0279115.204364.6594455.968079 1.2361249 2.1624602 1.2361249 1.194234 0 1.957949-.5768206 2.162313-1.2361249.1260343-.40691.2644365-.975115.434789-2.0279115.2394063-1.4793387.4228627-2.9318419.5194498-4.0210781.1014458-1.1431895.1540092-1.858142.0603669-2.6883456-.0482935-.4286608-.2017138-.7297826-.4917694-1.0234188zm-5.7143899-5.0101757c0 1.6063126 1.3575191 2.9085374 3.0320381 2.9085374 1.6746662 0 3.0321854-1.3022248 3.0321854-2.9085374 0-1.6064539-1.3575192-2.9086787-3.0321854-2.9086787-1.674519 0-3.0320381 1.3022248-3.0320381 2.9086787zm2.9944928-11.47860819c-7.0913442.01945364-12.90202662 5.53809029-12.98977948 12.34016689-.07126239 5.5101623 3.59551158 10.2235946 8.71565558 11.9512317.1242675.041948.250449-.0570607.2308666-.1820573-.0671398-.4278133-.1304514-.8577452-.1886098-1.280474-.020613-.149431-.1198503-.2782411-.2637003-.3385502-4.0469382-1.6959995-6.87284542-5.5893974-6.82749663-10.0993041.05948349-5.9184846 5.09761683-10.74349587 11.26740873-10.79137594 6.3074579-.04886874 11.4549878 4.85890864 11.4549878 10.89829394 0 4.4647102-2.8135393 8.3103693-6.828969 9.9928099-.1438499.0603091-.2424983.1895429-.2629641.3388326-.0581584.4225875-.12147.8523782-.1884625 1.2797678-.0197297.1249966.1064518.2240053.2307193.1821985 5.0712615-1.7111121 8.7166863-6.3512413 8.7166863-11.7934676-.0002945-6.9036275-5.8651599-12.51774179-13.0663425-12.49807219zm-.2354309 5.73370649c4.019994-.1492898 7.3398792 2.9444122 7.3398792 6.768038 0 1.9445803-.8588296 3.7001827-2.2315141 4.9365901-.1164639.1047994-.1790394.2536655-.170058.4066275.027386.4651004.0173739.9170657-.0148708 1.4275039-.008687.1360133.1503283.2228753.2676756.1461825 2.3018931-1.5089989 3.8159244-4.0463599 3.8159244-6.916904 0-4.7264264-4.1040659-8.55075836-9.0731454-8.36601758-4.6179208.17174679-8.322829 3.82404948-8.382018 8.25698088-.0388704 2.9154582 1.4844368 5.4982982 3.8159244 7.0262232.1170529.0766928.2756264-.0103105.2669395-.1461825-.032392-.5107207-.0422568-.962686-.0150181-1.4277864.0089814-.1528208-.0534468-.3016868-.1696163-.406345-1.4155302-1.2748244-2.2848136-3.1017526-2.2294528-5.1186474.0974705-3.5493394 3.0806261-6.4488376 6.7793504-6.5862632z" fill="#fff"/></g></svg>