<svg width="24" height="26" xmlns="http://www.w3.org/2000/svg"><path d="M14.47 15.598c-.512-.533-1.411-.874-2.473-.874-1.062 0-1.961.341-2.473.874a1.536 1.536 0 00-.453.968c-.086.785-.038 1.461.056 2.543.089 1.03.258 2.404.478 3.803.157.996.284 1.534.4 1.919.189.623.892 1.169 1.992 1.169s1.804-.546 1.992-1.17c.116-.384.243-.922.4-1.918.22-1.399.39-2.773.479-3.803.093-1.082.142-1.758.055-2.543a1.536 1.536 0 00-.453-.968zm-5.263-4.74c0 1.52 1.25 2.752 2.793 2.752 1.542 0 2.793-1.232 2.793-2.752 0-1.52-1.25-2.751-2.793-2.751-1.543 0-2.793 1.232-2.793 2.751zM11.965 0C5.434.018.082 5.239.001 11.673c-.066 5.212 3.312 9.671 8.028 11.305a.16.16 0 00.212-.172c-.062-.405-.12-.811-.174-1.211a.407.407 0 00-.242-.32c-3.728-1.605-6.33-5.288-6.289-9.554C1.591 6.123 6.231 1.56 11.914 1.513c5.81-.046 10.55 4.596 10.55 10.31 0 4.223-2.59 7.86-6.29 9.452a.407.407 0 00-.241.32c-.054.4-.112.807-.174 1.211a.16.16 0 00.212.173C20.642 21.359 24 16.97 24 11.823 24 5.293 18.598-.02 11.965 0zm-.217 5.424c3.703-.141 6.76 2.785 6.76 6.402 0 1.84-.79 3.5-2.055 4.67a.486.486 0 00-.156.384c.025.44.016.868-.014 1.35-.008.13.139.212.247.139 2.12-1.427 3.514-3.828 3.514-6.543 0-4.47-3.78-8.089-8.357-7.914-4.253.163-7.665 3.618-7.72 7.81-.036 2.759 1.367 5.202 3.515 6.647.108.073.254-.01.246-.138-.03-.483-.04-.91-.014-1.35a.486.486 0 00-.156-.385 6.345 6.345 0 01-2.054-4.842c.09-3.357 2.838-6.1 6.244-6.23z" fill="#FFF" fill-rule="nonzero"/></svg>