<svg xmlns="http://www.w3.org/2000/svg" width="215" height="214" viewBox="0 0 215 214">
  <path fill="#FFF" fill-rule="evenodd" d="M184.5,36.5 C187.813708,36.5 190.5,39.1862915 190.5,42.5 L190.5,141 L289,141 C292.313708,141 295,143.686292 295,147 L295,185 C295,188.313708 292.313708,191 289,191 L190.5,191 L190.5,289.5 C190.5,292.813708 187.813708,295.5 184.5,295.5 L146.5,295.5 C143.186292,295.5 140.5,292.813708 140.5,289.5 L140.5,191 L42,191 C38.6862915,191 36,188.313708 36,185 L36,147 C36,143.686292 38.6862915,141 42,141 L140.5,141 L140.5,42.5 C140.5,39.1862915 143.186292,36.5 146.5,36.5 L184.5,36.5 Z" transform="rotate(45 207.72 66.488)"/>
</svg>
