<svg width="112" height="112" xmlns="http://www.w3.org/2000/svg"><path d="M56 0C25.076 0 0 25.706 0 57.418c0 25.368 16.046 46.891 38.297 54.483 2.798.532 3.826-1.245 3.826-2.762 0-1.369-.052-5.892-.076-10.69-15.58 3.474-18.867-6.774-18.867-6.774-2.548-6.637-6.218-8.402-6.218-8.402-5.08-3.563.383-3.49.383-3.49 5.623.405 8.584 5.917 8.584 5.917 4.995 8.778 13.101 6.24 16.297 4.773.502-3.711 1.954-6.244 3.555-7.678-12.438-1.452-25.514-6.375-25.514-28.376 0-6.269 2.188-11.39 5.77-15.412-.581-1.446-2.498-7.286.543-15.195 0 0 4.702-1.543 15.404 5.886 4.467-1.272 9.257-1.91 14.016-1.932 4.76.022 9.554.66 14.03 1.932 10.688-7.429 15.384-5.886 15.384-5.886 3.048 7.91 1.13 13.749.549 15.195 3.59 4.021 5.763 9.143 5.763 15.412 0 22.053-13.1 26.909-25.57 28.33 2.008 1.782 3.798 5.276 3.798 10.633 0 7.683-.065 13.866-.065 15.757 0 1.528 1.008 3.319 3.847 2.755C95.975 104.293 112 82.778 112 57.418 112 25.706 86.927 0 56 0zM20.974 81.793c-.123.285-.561.37-.96.175-.406-.188-.634-.576-.502-.863.12-.293.559-.375.964-.178.407.187.639.58.498.866zm2.755 2.52c-.267.254-.79.136-1.144-.265-.366-.4-.435-.936-.164-1.194.275-.253.782-.135 1.149.266.366.405.438.936.159 1.193zm1.89 3.224c-.344.245-.905.016-1.252-.495-.343-.51-.343-1.123.008-1.368.348-.246.9-.025 1.252.482.342.519.342 1.131-.009 1.381zm3.195 3.735c-.307.347-.96.253-1.439-.22-.49-.463-.626-1.12-.318-1.467.31-.348.968-.25 1.45.22.486.462.635 1.123.307 1.467zm4.13 1.26c-.135.45-.764.654-1.399.463-.633-.197-1.047-.723-.92-1.178.132-.452.765-.665 1.404-.46.632.195 1.048.718.916 1.175zm4.702.535c.015.473-.523.866-1.188.875-.67.015-1.212-.368-1.219-.834 0-.478.526-.867 1.195-.879.666-.013 1.212.367 1.212.838zm4.617-.182c.08.463-.383.937-1.044 1.063-.65.122-1.252-.163-1.334-.621-.08-.474.39-.948 1.04-1.071.661-.118 1.254.16 1.338.63z" fill="#fff" fill-rule="evenodd"/></svg>