<svg height="136" viewBox="0 0 136 136" width="136" xmlns="http://www.w3.org/2000/svg"><g fill="none" fill-rule="evenodd"><circle cx="68" cy="68" r="65" stroke="#000"/><path d="m43.0003561 0c-23.7453281 0-43.0003561 19.7386977-43.0003561 44.0886403 0 19.4795161 12.3209108 36.0058204 29.4062679 41.8355845 2.1490208.4081196 2.9379921-.9564173 2.9379921-2.1209099 0-1.051329-.0398758-4.5243643-.0583896-8.2083954-11.9627406 2.6670165-14.4870213-5.2018874-14.4870213-5.2018874-1.9560506-5.0960239-4.7744152-6.4510701-4.7744152-6.4510701-3.90142003-2.736375.294084-2.6801583.294084-2.6801583 4.3179798.311018 6.5916125 4.5433467 6.5916125 4.5433467 3.8351977 6.7401855 10.0593832 4.7915768 12.5131692 3.6650487.3859408-2.8495389 1.5003273-4.7944973 2.7300681-5.8954722-9.5509665-1.1148467-19.5911238-4.8952496-19.5911238-21.7887889 0-4.8134798 1.679768-8.7464711 4.4304864-11.8340193-.4464666-1.110466-1.9183109-5.5946753.4165597-11.6675591 0 0 3.6108964-1.1849352 11.8281598 4.5192535 3.4300313-.9768596 7.1085738-1.4667496 10.7629063-1.4835416 3.6543325.016792 7.3357234.506682 10.7721628 1.4835416 8.2072948-5.7041887 11.8132062-4.5192535 11.8132062-4.5192535 2.3405676 6.0728838.8680111 10.5570931.4215445 11.6675591 2.7571271 3.0875482 4.4255019 7.0205395 4.4255019 11.8340193 0 16.9336944-10.0593831 20.6622612-19.6345599 21.7537446 1.5423391 1.368188 2.9166299 4.0512661 2.9166299 8.1645903 0 5.8991228-.0498444 10.6468941-.0498444 12.099042 0 1.1732537.7740174 2.5480119 2.9536572 2.1150689 17.0761002-5.836335 29.3813457-22.3567983 29.3813457-41.8297435 0-24.3499426-19.2521794-44.0886403-42.9996439-44.0886403zm-26.8953245 62.8051988c-.094705.2190268-.4308011.2847348-.7369903.1343367-.3118857-.1438281-.4870543-.4424345-.3859407-.6621911.0925688-.225598.4293769-.2883856.7405505-.1372572.3125979.1438277.4906148.4453546.3823805.6651116zm2.1151398 1.9350764c-.2050756.1949339-.6059698.1044028-.8779797-.2036947-.2812669-.3073676-.3339598-.7184081-.1260361-.9162625.2114842-.1949339.6002733-.1036725.8822522.2036951.2812667.311018.336096.719138.1217636.9162621zm1.4510659 2.4758643c-.2634651.1876331-.6942661.0116813-.9605795-.3803764-.2634652-.3920581-.2634652-.8622358.0056966-1.0505988.2670253-.1883631.6914178-.0189821.9612915.3701555.2627531.3986286.2627531.8688059-.0064086 1.0608197zm2.4540631 2.8674005c-.2356945.2664833-.7377023.1949342-1.1051294-.1686501-.3759718-.355554-.4806458-.8600458-.2442392-1.1265284.2385426-.2672125.7433988-.1920134 1.1136741.1686507.3731236.3548238.4870545.862966.2356945 1.1265278zm3.1716383.9680022c-.1039618.3453324-.587456.5023015-1.0745105.3555536-.4863423-.1511284-.8046367-.5555977-.7063713-.9045805.1011136-.3475223.5867439-.5110626 1.0773587-.3540936.4856303.1503986.8046368.5519477.7035231.9031205zm3.6094576.4106013c.012105.3635843-.4008944.6651112-.9121591.6716825-.514113.0116813-.9299606-.2825446-.9356572-.6402886 0-.367235.4037425-.6658414.9178555-.6746026.5112648-.0102212.9299608.2818143.9299608.6432087zm3.5458875-.1393617c.0612379.3548238-.2940841.719138-.8017885.81624-.4991595.0934513-.9612916-.1255754-1.0246657-.4774784-.0619498-.3635846.2997807-.7278992.7982282-.8220803.5084164-.0905312.9634278.1226546 1.028226.4833187z" fill="#000" transform="translate(25 25)"/></g></svg>