<svg width="327" height="45" xmlns="http://www.w3.org/2000/svg"><g fill="none" fill-rule="evenodd"><g fill-rule="nonzero"><path d="M.045 22.666L11.628 41.77c.043.071.105.13.18.172a.512.512 0 0 0 .494 0 .481.481 0 0 0 .18-.172l5.134-8.45a.465.465 0 0 0 0-.468l-6.14-10.118a.463.463 0 0 1 0-.468l6.14-10.118a.463.463 0 0 0 0-.468L12.49 3.23a.48.48 0 0 0-.18-.172.511.511 0 0 0-.675.173L.045 22.334a.34.34 0 0 0 0 .332z" fill="#31D7FB"/><path d="M34.919 22.334a.322.322 0 0 1 0 .332l-8.533 14.102-4.723 7.764a.297.297 0 0 0-.002.312.338.338 0 0 0 .284.156H40.49a.51.51 0 0 0 .246-.062.479.479 0 0 0 .179-.172l13.416-22.1a.316.316 0 0 0 0-.332L40.916.234a.478.478 0 0 0-.18-.172.513.513 0 0 0-.245-.062H21.945a.339.339 0 0 0-.166.04.319.319 0 0 0-.121.114.3.3 0 0 0 0 .314l3.364 5.534 9.897 16.332z" fill="#0282F8"/></g><text font-family="Inter-ExtraBold, Inter" font-size="32" font-weight="600" letter-spacing="-.48" fill="#FFF"><tspan x="70" y="34">Fullstack Nights</tspan></text></g></svg>