<svg xmlns="http://www.w3.org/2000/svg" width="296" height="220" viewBox="0 0 296 220">
  <path fill="#FFF" fill-rule="evenodd" d="M332,240 C335.313708,240 338,242.686292 338,246 L338,274 C338,277.313708 335.313708,280 332,280 L48,280 C44.6862915,280 42,277.313708 42,274 L42,246 C42,242.686292 44.6862915,240 48,240 L332,240 Z M332,150 C335.313708,150 338,152.686292 338,156 L338,184 C338,187.313708 335.313708,190 332,190 L48,190 C44.6862915,190 42,187.313708 42,184 L42,156 C42,152.686292 44.6862915,150 48,150 L332,150 Z M332,60 C335.313708,60 338,62.6862915 338,66 L338,94 C338,97.3137085 335.313708,100 332,100 L48,100 C44.6862915,100 42,97.3137085 42,94 L42,66 C42,62.6862915 44.6862915,60 48,60 L332,60 Z" transform="translate(-42 -60)"/>
</svg>
