<svg xmlns="http://www.w3.org/2000/svg" xmlns:xlink="http://www.w3.org/1999/xlink" width="220" height="213"><defs><linearGradient id="c" x1="0%" x2="79.039%" y1="96.869%" y2="3.131%"><stop offset="0%"/><stop offset="100%" stop-color="#383841"/></linearGradient><rect id="a" width="220" height="213" rx="10"/></defs><g fill="none" fill-rule="evenodd"><mask id="b" fill="#fff"><use xlink:href="#a"/></mask><g fill-rule="nonzero" mask="url(#b)"><g transform="translate(0 -143.24)"><rect width="220" height="213" y="143.24" fill="url(#c)" rx="10"/><path fill="#0282F8" d="M266.67 181.074a2.594 2.594 0 010-2.653l66.8-112.656L370.443 3.74c.228-.378.35-.807.353-1.245a2.43 2.43 0 00-.339-1.247 2.514 2.514 0 00-.937-.915A2.615 2.615 0 00368.236 0h-145.19a3.92 3.92 0 00-1.922.499 3.76 3.76 0 00-1.403 1.371L114.689 178.421a2.594 2.594 0 000 2.653l105.032 176.551a3.76 3.76 0 001.403 1.372 3.926 3.926 0 001.923.498h145.19c.453.007.9-.104 1.295-.32.395-.217.723-.533.95-.913a2.423 2.423 0 00-.006-2.507l-26.327-44.206-77.479-130.475z"/><path fill="#FFF" d="M17.497 265.552h5.17v-9.78h9.946v-4.127h-9.946v-5.642h11.02v-4.127h-16.19v23.676zm32.934-16.867h4.956c-.072-4.22-3.654-7.132-9.1-7.132-5.36 0-9.289 2.867-9.265 7.167-.012 3.492 2.532 5.491 6.663 6.451l2.663.648c2.663.624 4.143 1.364 4.155 2.959-.012 1.734-1.707 2.913-4.334 2.913-2.687 0-4.621-1.202-4.788-3.572h-5.003c.131 5.121 3.916 7.769 9.85 7.769 5.97 0 9.481-2.763 9.493-7.099-.012-3.941-3.08-6.034-7.332-6.959l-2.196-.509c-2.126-.474-3.905-1.237-3.869-2.936 0-1.526 1.397-2.648 3.928-2.648 2.472 0 3.988 1.087 4.18 2.948zm29.222-6.809h-5.146v14.89h-.215l-10.556-14.89H59.2v23.676h5.17v-14.901h.179l10.64 14.901h4.465v-23.676zm-61.32 52.976h2.96v-8.648h5.35c5.696 0 8.275-3.353 8.263-7.537.012-4.185-2.567-7.491-8.31-7.491h-8.264v23.676zm2.96-11.19v-9.943H26.5c3.976 0 5.504 2.104 5.492 4.948.012 2.844-1.516 4.994-5.445 4.994h-5.253zm25.255 11.56c4.967 0 8.31-3.654 8.31-9.156 0-5.55-3.343-9.203-8.31-9.203-4.968 0-8.31 3.653-8.31 9.203 0 5.502 3.342 9.155 8.31 9.155zm0-2.451c-3.773 0-5.493-3.145-5.493-6.705 0-3.561 1.72-6.752 5.493-6.752 3.773 0 5.493 3.191 5.493 6.752 0 3.56-1.72 6.705-5.493 6.705zm27.944 2.08v-23.675h-2.819v8.74h-.238c-.62-.926-1.72-3.053-5.302-3.053-4.633 0-7.833 3.56-7.833 9.156 0 5.642 3.2 9.202 7.786 9.202 3.534 0 4.728-2.126 5.349-3.098h.334v2.729h2.723zm-2.77-8.878c0 4.023-1.863 6.798-5.255 6.798-3.534 0-5.349-3.006-5.349-6.798 0-3.746 1.767-6.659 5.35-6.659 3.438 0 5.253 2.682 5.253 6.659zm15.379 9.248c4.06 0 6.734-2.404 7.212-5.548h-2.818c-.525 1.942-2.197 3.098-4.394 3.098-3.343 0-5.493-2.682-5.493-6.798 0-4.023 2.197-6.659 5.493-6.659 2.483 0 3.964 1.48 4.394 3.098h2.818c-.478-3.329-3.392-5.549-7.26-5.549-4.967 0-8.263 3.792-8.263 9.203 0 5.318 3.152 9.155 8.31 9.155zm16.728.047c3.2 0 4.872-1.665 5.445-2.82h.143v2.404h2.819v-11.7c0-5.641-4.442-6.289-6.783-6.289-2.77 0-5.922.925-7.355 4.162l2.674.925c.622-1.295 2.09-2.682 4.777-2.682 2.615 0 3.868 1.353 3.868 3.653 0 1.318-1.385 1.248-4.728 1.665-3.403.428-7.117 1.156-7.117 5.225 0 3.468 2.77 5.457 6.257 5.457zm.43-2.451c-2.244 0-3.868-.971-3.868-2.867 0-2.081 1.958-2.728 4.155-3.006 1.194-.139 4.394-.462 4.871-1.017v2.497c0 2.22-1.814 4.393-5.158 4.393zm26.111-11.746c-.884-2.52-2.866-4.208-6.496-4.208-3.868 0-6.734 2.127-6.734 5.133 0 2.451 1.504 4.093 4.872 4.855l3.057.694c1.85.417 2.722 1.272 2.722 2.497 0 1.526-1.671 2.775-4.298 2.775-2.305 0-3.75-.96-4.252-2.867l-2.674.647c.656 3.017 3.224 4.624 6.973 4.624 4.263 0 7.164-2.254 7.164-5.317 0-2.474-1.6-4.035-4.871-4.81l-2.723-.647c-2.173-.52-3.152-1.225-3.152-2.59 0-1.526 1.672-2.635 3.916-2.635 2.46 0 3.475 1.318 3.965 2.543l2.531-.694zm12.553-3.977h-3.917v-4.254h-2.818v4.254h-2.77v2.313h2.77v11.098c0 3.098 2.58 4.578 4.967 4.578 1.051 0 1.72-.185 2.102-.324l-.573-2.45c-.239.046-.621.138-1.242.138-1.242 0-2.436-.37-2.436-2.682v-10.358h3.917v-2.313z"/></g></g><g fill-rule="nonzero"><path fill="#31D7FB" d="M15.405 32.45l8.8 14.808a.383.383 0 00.512.133.369.369 0 00.138-.133l3.9-6.55a.366.366 0 000-.362l-4.665-7.843a.364.364 0 010-.362l4.666-7.843a.364.364 0 000-.363l-3.894-6.549a.382.382 0 00-.649 0l-8.808 14.807a.268.268 0 000 .258z"/><path fill="#0282F8" d="M41.903 32.193a.254.254 0 010 .258L35.42 43.38 31.831 49.4a.234.234 0 00-.001.242.253.253 0 00.215.12h14.092a.367.367 0 00.323-.181l10.194-17.13a.249.249 0 000-.257L46.46 15.063a.366.366 0 00-.323-.181H32.045a.254.254 0 00-.218.12.237.237 0 000 .243l2.556 4.289 7.52 12.66z"/></g></g></svg>