<svg height="83" width="102" xmlns="http://www.w3.org/2000/svg"><path d="M85.212 6.553A20.672 20.672 0 0070.086 0c-11.44 0-20.72 9.292-20.72 20.747 0 1.622.18 3.203.532 4.731-17.224-.87-32.495-9.127-42.717-21.681a20.654 20.654 0 00-2.808 10.432 20.74 20.74 0 009.222 17.268 20.595 20.595 0 01-9.39-2.598c-.005.088-.005.17-.005.264 0 10.05 7.147 18.443 16.623 20.347-1.739.47-3.565.723-5.46.723-1.329 0-2.635-.123-3.894-.364 2.634 8.24 10.29 14.235 19.356 14.405A41.538 41.538 0 015.09 73.161c-1.682 0-3.322-.094-4.94-.288 9.175 5.877 20.066 9.321 31.767 9.321 38.122 0 58.963-31.614 58.963-59.037 0-.9-.017-1.793-.057-2.68a42.417 42.417 0 0010.336-10.738A41.675 41.675 0 0189.257 13c4.281-2.575 7.563-6.636 9.112-11.485a41.48 41.48 0 01-13.157 5.037z" fill="#fff" fill-rule="evenodd"/></svg>