<svg height="136" viewBox="0 0 136 136" width="136" xmlns="http://www.w3.org/2000/svg"><g fill="none" fill-rule="evenodd"><circle cx="68" cy="68" r="65" stroke="#000"/><path d="m59.7907562 5.76151682c-2.6520421-3.44223462-6.4412539-5.59488571-10.6325363-5.59488571-8.041414 0-14.5638943 7.93319669-14.5638943 17.71295659 0 1.3849224.1259009 2.7347199.3736415 4.0393569-12.1067956-.7426395-22.8408649-7.7926973-30.0253404-18.51079226-1.25494794 2.61930972-1.97380162 5.65509973-1.97380162 8.90665666 0 6.1418297 2.57081569 11.566109 6.48186706 14.7423984-2.38399497-.090321-4.63396636-.8881568-6.59964535-2.217883-.00406132.0752676-.00406132.1455172-.00406132.2258026 0 8.5804974 5.02385311 15.7459654 11.68441823 17.3717438-1.2224574.4014268-2.5058345.6171937-3.8379476.6171937-.93410362 0-1.85196199-.1053745-2.7373298-.3111058 1.85196202 7.0350043 7.2332113 12.1531957 13.6054227 12.2987129-4.9873012 4.7518895-11.2620409 7.5869661-18.08912022 7.5869661-1.18184418 0-2.33525912-.0802853-3.47242878-.2458739 6.4493765 5.0178348 14.1049651 7.9582859 22.3291385 7.9582859 26.7965908 0 41.4457728-26.990933 41.4457728-50.4041498 0-.7677287-.0121839-1.5304396-.0406132-2.2881326 2.8429242-2.5038995 5.3122069-5.6199749 7.2657019-9.16758406-2.6154902 1.40499373-5.4178012 2.35336446-8.3663196 2.78489826 3.0094382-2.19781159 5.3162681-5.66513539 6.4047019-9.80484903-2.8144949 2.03222306-5.9295275 3.50244863-9.2476261 4.30028435z" fill="#000" transform="translate(33 33)"/></g></svg>