<svg width="107" height="86" xmlns="http://www.w3.org/2000/svg"><path d="M90.107 6.979C86.11 2.809 80.4.202 74.084.202c-12.12 0-21.949 9.61-21.949 21.455 0 1.677.19 3.312.563 4.893-18.245-.9-34.422-9.44-45.25-22.422a20.972 20.972 0 00-2.974 10.789c0 7.439 3.874 14.01 9.769 17.857a22.222 22.222 0 01-9.946-2.687c-.006.091-.006.176-.006.274 0 10.393 7.57 19.072 17.608 21.041a22.612 22.612 0 01-5.784.748 22.49 22.49 0 01-4.125-.377c2.791 8.521 10.901 14.72 20.504 14.897-7.516 5.756-16.972 9.19-27.26 9.19-1.782 0-3.52-.097-5.234-.298a63.289 63.289 0 0033.651 9.64c40.384 0 62.46-32.693 62.46-61.053 0-.93-.018-1.854-.06-2.772A44.354 44.354 0 00107 10.273a44.988 44.988 0 01-12.608 3.373c4.535-2.662 8.011-6.862 9.652-11.876a44.591 44.591 0 01-13.937 5.209z" fill="#fff" fill-rule="evenodd"/></svg>