<svg height="136" viewBox="0 0 136 136" width="136" xmlns="http://www.w3.org/2000/svg"><g fill="none" fill-rule="evenodd"><path d="m79.4725 5.49272727c-2.251375-4.00036363-4.6946875-4.73618181-9.6695-5.016-4.969625-.33681818-17.4663125-.47672727-28.292625-.47672727-10.8470625 0-23.3489375.13990909-28.313375.47154546-4.9644375.285-7.4129375 1.01563636-9.6850625 5.02118181-2.3188125 3.99518182-3.5119375 10.87663633-3.5119375 22.99172723v.0155455.0155455.0103636c0 12.0632727 1.193125 18.9965454 3.5119375 22.9502727 2.272125 4.0003637 4.7154375 4.7258182 9.679875 5.0626364 4.969625.2901818 17.4715.4611818 28.3185625.4611818 10.8263125 0 23.323-.171 28.2978125-.456 4.9748125-.3368182 7.418125-1.0622727 9.6695-5.0626364 2.3395625-3.9537272 3.5223125-10.887 3.5223125-22.9502727 0 0 0-.0155454 0-.0259091 0 0 0-.0103636 0-.0155454 0-12.1202728-1.18275-19.00172731-3.5275-22.99690913zm-48.3475 38.55272723v-31.090909l25.9375 15.5454545z" fill="#000" fill-rule="nonzero" transform="translate(27 40)"/><circle cx="68" cy="68" r="65" stroke="#000"/></g></svg>